<?xml version="1.0" standalone="no"?><svg xmlns="http://www.w3.org/2000/svg" viewBox="0 0 1440 320"><path fill="#6a7bff" fill-opacity="1" d="M0,192L8.9,170.7C17.8,149,36,107,53,80C71.1,53,89,43,107,85.3C124.4,128,142,224,160,229.3C177.8,235,196,149,213,101.3C231.1,53,249,43,267,80C284.4,117,302,203,320,234.7C337.8,267,356,245,373,202.7C391.1,160,409,96,427,106.7C444.4,117,462,203,480,213.3C497.8,224,516,160,533,160C551.1,160,569,224,587,213.3C604.4,203,622,117,640,106.7C657.8,96,676,160,693,192C711.1,224,729,224,747,234.7C764.4,245,782,267,800,250.7C817.8,235,836,181,853,181.3C871.1,181,889,235,907,250.7C924.4,267,942,245,960,224C977.8,203,996,181,1013,197.3C1031.1,213,1049,267,1067,240C1084.4,213,1102,107,1120,69.3C1137.8,32,1156,64,1173,85.3C1191.1,107,1209,117,1227,122.7C1244.4,128,1262,128,1280,106.7C1297.8,85,1316,43,1333,58.7C1351.1,75,1369,149,1387,181.3C1404.4,213,1422,203,1431,197.3L1440,192L1440,320L1431.1,320C1422.2,320,1404,320,1387,320C1368.9,320,1351,320,1333,320C1315.6,320,1298,320,1280,320C1262.2,320,1244,320,1227,320C1208.9,320,1191,320,1173,320C1155.6,320,1138,320,1120,320C1102.2,320,1084,320,1067,320C1048.9,320,1031,320,1013,320C995.6,320,978,320,960,320C942.2,320,924,320,907,320C888.9,320,871,320,853,320C835.6,320,818,320,800,320C782.2,320,764,320,747,320C728.9,320,711,320,693,320C675.6,320,658,320,640,320C622.2,320,604,320,587,320C568.9,320,551,320,533,320C515.6,320,498,320,480,320C462.2,320,444,320,427,320C408.9,320,391,320,373,320C355.6,320,338,320,320,320C302.2,320,284,320,267,320C248.9,320,231,320,213,320C195.6,320,178,320,160,320C142.2,320,124,320,107,320C88.9,320,71,320,53,320C35.6,320,18,320,9,320L0,320Z"></path></svg>