<svg viewBox="0 0 200 200" xmlns="http://www.w3.org/2000/svg">
  <path fill="#6A7BFF" d="M43.5,-75.9C56.9,-67.5,68.7,-57,76.7,-44C84.7,-31,88.8,-15.5,89.8,0.6C90.8,16.7,88.7,33.3,81.1,47C73.5,60.7,60.4,71.4,46,78C31.6,84.7,15.8,87.4,-0.4,88C-16.5,88.7,-33,87.2,-45.8,79.6C-58.7,72,-67.8,58.2,-74.7,43.9C-81.7,29.6,-86.6,14.8,-87.4,-0.5C-88.2,-15.7,-84.9,-31.4,-77.8,-45.6C-70.8,-59.8,-60,-72.6,-46.4,-80.9C-32.8,-89.2,-16.4,-93.1,-0.7,-91.9C15,-90.6,30,-84.4,43.5,-75.9Z" transform="translate(100 100)" />
</svg>